<svg width="24" height="24" viewBox="0 0 24 24" fill="none" xmlns="http://www.w3.org/2000/svg">
<path d="M15 8V6C13.8 6 12.734 6.542 12 7.382C11.266 6.542 10.2 6 9 6V8C10.103 8 11 8.897 11 10V14C11 15.103 10.103 16 9 16V18C10.2 18 11.266 17.458 12 16.618C12.734 17.458 13.8 18 15 18V16C13.897 16 13 15.103 13 14V10C13 8.897 13.897 8 15 8Z" fill="#318CFE"/>
<path d="M23 6C23.552 6 24 5.552 24 5V1C24 0.448 23.552 0 23 0H19C18.448 0 18 0.448 18 1V2H6V1C6 0.448 5.552 0 5 0H1C0.448 0 0 0.448 0 1V5C0 5.552 0.448 6 1 6H2V18H1C0.448 18 0 18.448 0 19V23C0 23.552 0.448 24 1 24H5C5.552 24 6 23.552 6 23V22H18V23C18 23.552 18.448 24 19 24H23C23.552 24 24 23.552 24 23V19C24 18.448 23.552 18 23 18H22V6H23ZM20 18H19C18.448 18 18 18.448 18 19V20H6V19C6 18.448 5.552 18 5 18H4V6H5C5.552 6 6 5.552 6 5V4H18V5C18 5.552 18.448 6 19 6H20V18Z" fill="#318CFE"/>
</svg>
