<svg width="12" height="12" viewBox="0 0 12 12" fill="none" xmlns="http://www.w3.org/2000/svg">
<path d="M11.25 0.75H0.75C0.551088 0.75 0.360322 0.829018 0.21967 0.96967C0.0790176 1.11032 0 1.30109 0 1.5L0 9.75H1.5V2.25H6V5.25H3V6.75H6.75C6.94891 6.75 7.13968 6.67098 7.28033 6.53033C7.42098 6.38968 7.5 6.19891 7.5 6V2.25H10.5V9.75H4.5V8.25H3V10.5C3 10.6989 3.07902 10.8897 3.21967 11.0303C3.36032 11.171 3.55109 11.25 3.75 11.25H11.25C11.4489 11.25 11.6397 11.171 11.7803 11.0303C11.921 10.8897 12 10.6989 12 10.5V1.5C12 1.30109 11.921 1.11032 11.7803 0.96967C11.6397 0.829018 11.4489 0.75 11.25 0.75Z" fill="#02A97A"/>
</svg>
