<svg width="14" height="4" viewBox="0 0 14 4" fill="none" xmlns="http://www.w3.org/2000/svg">
<path d="M7 3.75C7.9665 3.75 8.75 2.9665 8.75 2C8.75 1.0335 7.9665 0.25 7 0.25C6.0335 0.25 5.25 1.0335 5.25 2C5.25 2.9665 6.0335 3.75 7 3.75Z" fill="#394B59"/>
<path d="M1.75 3.75C2.7165 3.75 3.5 2.9665 3.5 2C3.5 1.0335 2.7165 0.25 1.75 0.25C0.783502 0.25 0 1.0335 0 2C0 2.9665 0.783502 3.75 1.75 3.75Z" fill="#394B59"/>
<path d="M12.25 3.75C13.2165 3.75 14 2.9665 14 2C14 1.0335 13.2165 0.25 12.25 0.25C11.2835 0.25 10.5 1.0335 10.5 2C10.5 2.9665 11.2835 3.75 12.25 3.75Z" fill="#394B59"/>
</svg>
