<svg width="24" height="24" viewBox="0 0 24 24" fill="none" xmlns="http://www.w3.org/2000/svg">
<path d="M15 0.75V6.75H21" stroke="#318CFE" stroke-width="2" stroke-miterlimit="10"/>
<path d="M21 9.75V6.75L15 0.75H3V9.75" stroke="#318CFE" stroke-width="2" stroke-miterlimit="10" stroke-linecap="square"/>
<path d="M3 20.25V23.25H21V20.25" stroke="#318CFE" stroke-width="2" stroke-miterlimit="10" stroke-linecap="square"/>
<path d="M8.47501 17.25H7.20001L6.37501 15.9L5.47501 17.25H4.20001L5.62501 15.075L4.27501 12.975H5.55001L6.30001 14.325L7.05001 12.975H8.40001L7.05001 15.15L8.47501 17.25Z" fill="#318CFE"/>
<path d="M9 17.25V12.975H10.125V16.35H11.775V17.25H9Z" fill="#318CFE"/>
<path d="M15.3 15.975C15.3 16.275 15.225 16.5 15.075 16.65C14.925 16.8 14.775 17.025 14.475 17.1C14.175 17.175 13.95 17.25 13.575 17.25C13.275 17.25 13.05 17.25 12.825 17.175C12.6 17.1 12.45 17.1 12.225 16.95V15.9C12.45 16.05 12.675 16.125 12.9 16.2C13.125 16.275 13.35 16.275 13.575 16.275C13.725 16.275 13.875 16.275 13.95 16.2C14.025 16.125 14.1 16.05 14.1 15.975C14.1 15.9 14.1 15.9 14.025 15.825C13.95 15.75 13.95 15.75 13.875 15.675C13.8 15.6 13.65 15.525 13.275 15.375C12.975 15.225 12.75 15.15 12.675 15C12.6 14.85 12.45 14.775 12.375 14.625C12.3 14.475 12.3 14.325 12.3 14.1C12.3 13.725 12.45 13.425 12.75 13.2C13.05 12.975 13.425 12.9 13.95 12.9C14.4 12.9 14.85 12.975 15.3 13.2L14.925 14.1C14.55 13.95 14.175 13.8 13.875 13.8C13.725 13.8 13.65 13.8 13.575 13.875C13.5 13.95 13.5 14.025 13.5 14.1C13.5 14.175 13.575 14.25 13.65 14.325C13.725 14.4 13.95 14.475 14.325 14.7C14.7 14.85 14.925 15.075 15.075 15.225C15.225 15.375 15.3 15.675 15.3 15.975Z" fill="#318CFE"/>
<path d="M19.8 17.25H18.45L17.625 15.9L16.8 17.25H15.525L16.95 15.075L15.6 12.975H16.875L17.625 14.325L18.375 12.975H19.725L18.375 15.15L19.8 17.25Z" fill="#318CFE"/>
<path d="M23.25 9.75H0.75V20.25H23.25V9.75Z" stroke="#318CFE" stroke-width="2" stroke-miterlimit="10" stroke-linecap="square"/>
</svg>
