<svg width="12" height="12" viewBox="0 0 12 12" fill="none" xmlns="http://www.w3.org/2000/svg">
<path d="M10.5 2.9729e-06H1.5C1.39994 -0.00601176 1.29974 0.00926701 1.20602 0.0448305C1.1123 0.080394 1.02719 0.135433 0.956306 0.206314C0.885426 0.277195 0.830386 0.362305 0.794823 0.456025C0.759259 0.549745 0.743981 0.649943 0.749995 0.750003V11.25C0.743981 11.3501 0.759259 11.4503 0.794823 11.544C0.830386 11.6377 0.885426 11.7228 0.956306 11.7937C1.02719 11.8646 1.1123 11.9196 1.20602 11.9552C1.29974 11.9907 1.39994 12.006 1.5 12H7.5L11.25 8.25V0.750003C11.256 0.649943 11.2407 0.549745 11.2052 0.456025C11.1696 0.362305 11.1146 0.277195 11.0437 0.206314C10.9728 0.135433 10.8877 0.080394 10.794 0.0448305C10.7003 0.00926701 10.6001 -0.00601176 10.5 2.9729e-06ZM2.25 1.5H9.75V7.5H6.75V10.5H2.25V1.5Z" fill="#394B59"/>
<path d="M8.25 3H3.75V3.75H8.25V3Z" fill="#394B59"/>
<path d="M8.25 5.25H3.75V6H8.25V5.25Z" fill="#394B59"/>
<path d="M5.25 7.5H3.75V8.25H5.25V7.5Z" fill="#394B59"/>
</svg>
