<svg width="24" height="20" viewBox="0 0 24 20" fill="none" xmlns="http://www.w3.org/2000/svg">
<path d="M21.75 1C20.7735 1 19.9492 1.62925 19.638 2.5H15V1C15 0.586 14.664 0.25 14.25 0.25H9.75C9.336 0.25 9 0.586 9 1V2.5H4.362C4.05075 1.62925 3.2265 1 2.25 1C1.0095 1 0 2.0095 0 3.25C0 4.4905 1.0095 5.5 2.25 5.5C3.2265 5.5 4.05075 4.87075 4.362 4H9V5.5C9 5.914 9.336 6.25 9.75 6.25H14.25C14.664 6.25 15 5.914 15 5.5V4H19.638C19.9485 4.87075 20.7735 5.5 21.75 5.5C22.9905 5.5 24 4.4905 24 3.25C24 2.0095 22.9905 1 21.75 1Z" fill="#394B59"/>
<path d="M3 13.75H1.5C1.086 13.75 0.75 14.086 0.75 14.5V19C0.75 19.414 1.086 19.75 1.5 19.75H6C6.414 19.75 6.75 19.414 6.75 19V14.5C6.75 14.086 6.414 13.75 6 13.75H4.5C4.5 11.3035 5.68275 9.13449 7.5 7.76424V5.96799C4.81425 7.52724 3 10.4275 3 13.75Z" fill="#394B59"/>
<path d="M22.5 13.75H21C21 10.4275 19.1858 7.52724 16.5 5.96799V7.76424C18.3173 9.13449 19.5 11.3035 19.5 13.75H18C17.586 13.75 17.25 14.086 17.25 14.5V19C17.25 19.414 17.586 19.75 18 19.75H22.5C22.914 19.75 23.25 19.414 23.25 19V14.5C23.25 14.086 22.914 13.75 22.5 13.75Z" fill="#394B59"/>
</svg>
